PathFileType	4	(X/Y/Z)	F:\MotionCapture\20160217\3\Generated_files\2_Test01-Dynamic.trc
DataRate	CameraRate	NumFrames	NumMarkers	Units	OrigDataRate	OrigDataStartFrame	OrigNumFrames
120.00	120.00	       4	39	mm	120.00	432	       690
Frame#	Time	Top.Head			Front.Head			Rear.Head			R.Shoulder			R.Offset			R.Elbow			R.Wrist			L.Shoulder			L.Elbow			L.Wrist			R.ASIS			L.ASIS			V.Sacral			R.Thigh			R.Knee			R.Shank			R.Ankle			R.Heel			R.Toe			L.Thigh			L.Knee			L.Shank			L.Ankle			L.Heel			L.Toe			R1			R2			R3			R4			R5			R6			R7			L1			L2			L3			L4			L5			L6			L7			V_Mid_ASIS			V_Pelvis_Origin			V_R.Hip_JC			V_L.Hip_JC			V_R.Knee_JC			V_L.Knee_JC			V_R.Ankle_JC			V_L.Ankle_JC			V_Mid_Hip			V_Mid_Shoulder			V_R.Hand			V_L.Hand			V_R.Toe_Offset_Static			V_L.Toe_Offset_Static			V_R.Toe_Offset			V_L.Toe_Offset			
		X1	Y1	Z1	X2	Y2	Z2	X3	Y3	Z3	X4	Y4	Z4	X5	Y5	Z5	X6	Y6	Z6	X7	Y7	Z7	X8	Y8	Z8	X9	Y9	Z9	X10	Y10	Z10	X11	Y11	Z11	X12	Y12	Z12	X13	Y13	Z13	X14	Y14	Z14	X15	Y15	Z15	X16	Y16	Z16	X17	Y17	Z17	X18	Y18	Z18	X19	Y19	Z19	X20	Y20	Z20	X21	Y21	Z21	X22	Y22	Z22	X23	Y23	Z23	X24	Y24	Z24	X25	Y25	Z25	X26	Y26	Z26	X27	Y27	Z27	X28	Y28	Z28	X29	Y29	Z29	X30	Y30	Z30	X31	Y31	Z31	X32	Y32	Z32	X33	Y33	Z33	X34	Y34	Z34	X35	Y35	Z35	X36	Y36	Z36	X37	Y37	Z37	X38	Y38	Z38	X39	Y39	Z39	

432	3.592	-133.94064	208.78181	1678.16443	-235.42622	192.11029	1584.03845	-19.60078	215.17770	1620.16382	-58.69860	396.08710	1382.52112	98.01429	139.25168	1246.32959	-70.69433	536.18268	1074.94238	-296.46936	502.21890	951.90906	-60.27513	-9.36819	1380.35010	82.93601	-118.25584	1104.90295	115.36828	-162.99884	852.21863	-76.09235	351.73111	909.65344	-109.27234	64.49439	913.81073	130.19901	174.13332	913.23804	-12.66971	299.09204	525.73254	108.71429	331.88824	443.06534	181.75314	245.79871	225.32298	300.04321	305.93213	86.29760	366.91025	238.62024	80.67388	165.03569	294.61337	37.33158	-232.03065	94.94669	637.39484	-220.64598	36.68625	470.07599	-295.41821	106.79948	350.91080	-339.99890	42.87607	79.19102	-296.92258	104.95472	32.40785	-470.01755	42.19051	119.27306	116.29827	277.58890	33.91641	156.09032	256.88004	43.19727	247.62187	217.06816	64.29916	322.34445	211.77797	72.03686	334.82291	283.34195	71.39661	268.53644	315.59790	43.71835	207.63583	336.73410	32.76728	-509.63193	61.80674	141.49072	-480.22299	76.55502	128.56950	-399.93039	124.86137	96.58879	-330.65048	133.65871	52.25723	-319.91217	63.40461	41.13789	-388.49390	27.46239	65.27559	-437.92438	15.34104	95.81229	
433	3.600	-146.73514	208.01378	1676.29004	-247.93486	190.81433	1582.36523	-31.43412	213.70992	1618.38171	-70.55138	394.70325	1380.44812	85.20061	138.01021	1243.27173	-83.31885	534.99951	1073.28955	-310.09897	501.98376	951.39612	-72.09163	-11.00359	1378.86182	71.28934	-119.60632	1103.30249	105.19434	-164.41455	850.94128	-88.36742	351.20828	907.68030	-124.28915	63.97886	911.98865	116.10970	171.75659	910.39172	-22.74230	299.73633	523.76520	99.67729	332.10797	442.37729	177.85378	246.08897	226.04031	299.57855	306.57666	89.56293	364.37531	240.44324	86.90607	164.46994	294.79840	37.52587	-245.21312	96.92194	635.73627	-234.50648	37.07830	468.34421	-308.73355	107.35490	348.77283	-354.90698	43.23675	77.28574	-311.28418	104.91939	30.27740	-484.25986	43.60955	117.24544	116.15773	277.61026	33.82198	156.99539	256.84442	41.96809	246.34758	217.82895	66.12444	321.23709	212.35820	75.93253	333.25012	283.99899	75.07423	268.62717	316.68185	45.52114	207.32608	336.38791	32.41552	-523.39020	62.78471	139.77986	-494.69623	77.93908	127.27398	-413.66214	125.05357	94.25598	-344.64276	134.00304	50.03905	-334.34830	63.38081	39.08391	-403.03839	28.14615	63.81257	-452.31281	16.51132	94.06011	
434	3.608	-159.16458	206.49207	1674.53027	-260.41559	189.51799	1580.67932	-43.96209	212.70662	1616.72693	-82.74602	393.34537	1378.67297	73.06532	136.38745	1241.18091	-95.74235	533.70294	1071.56116	-322.89798	501.28638	950.37769	-84.27642	-12.43589	1377.04321	58.85038	-121.02392	1101.97607	93.57690	-165.71982	849.99548	-102.06544	350.53284	905.93390	-138.22319	63.53551	909.90802	102.32289	169.58838	908.41895	-33.78252	300.53079	521.71240	90.64360	332.74933	441.82343	172.20407	246.95958	227.22491	296.33426	307.07861	93.05462	361.37656	240.37102	91.78741	164.02681	294.98508	37.72396	-259.53366	98.48142	635.32141	-249.07036	37.17622	466.39066	-320.59433	108.06430	345.79050	-366.95145	43.73671	74.83950	-322.73486	105.40614	27.79946	-495.89304	45.10196	114.66341	116.12163	277.68173	33.79501	156.67154	257.06244	41.92752	245.24133	218.58058	68.56618	319.40955	213.43715	80.47892	331.64099	285.18112	79.37611	266.63934	316.74139	47.61746	206.78600	336.52783	32.73254	-536.18805	65.00063	136.75606	-506.40219	79.87547	124.20211	-425.33664	126.44342	91.09890	-355.44138	134.59673	47.79572	-346.69952	64.24107	36.45731	-415.39618	28.98307	60.89425	-464.37048	17.81340	91.05253	
435	3.617	-171.45750	205.42880	1672.89502	-273.21674	188.22993	1578.93774	-56.43352	211.03764	1615.20056	-94.89392	391.81357	1376.92834	59.89956	135.05034	1238.88599	-107.81580	532.10913	1070.36389	-335.07260	500.15417	949.28058	-97.75486	-13.71846	1375.40771	46.54128	-122.74094	1100.49524	82.86042	-166.71010	847.85797	-114.74955	349.59424	903.58221	-153.21318	63.00597	908.67712	87.83517	166.75845	906.02362	-44.26674	301.06284	519.58551	79.78868	333.64444	441.12137	166.68810	247.95999	227.54785	294.35205	308.39053	96.48698	358.99387	241.39873	97.10647	164.58356	295.18024	37.20662	-274.37350	100.00880	635.32867	-263.38217	37.51645	464.83411	-333.44983	108.98277	342.88736	-377.02292	44.19394	72.10902	-330.39673	105.53449	26.29983	-506.20258	47.50847	109.81146	116.03554	277.62866	33.77092	156.18939	257.28778	41.82990	243.26360	219.16106	71.17257	317.12646	214.32692	85.25627	329.60330	285.97574	83.62366	265.69138	317.38318	49.74794	206.06523	336.20966	32.57291	-546.51324	67.88189	130.87634	-516.54639	82.11020	119.02528	-434.23529	128.21713	86.42324	-364.18802	135.37219	44.04907	-356.04767	64.83847	33.23938	-424.18875	31.01536	56.22233	-474.78033	20.25171	86.97533	
